<svg xmlns="http://www.w3.org/2000/svg" width="1000" height="1000" viewBox="0 0 1000 1000">
  <defs>
    <style>
      .cls-1 {
        fill: #fbca43;
      }

      .cls-2 {
        fill: #cca539;
      }

      .cls-2, .cls-3 {
        fill-rule: evenodd;
      }

      .cls-3 {
        fill: #fff;
      }
    </style>
  </defs>
  <rect id="Kleurenvulling_2" data-name="Kleurenvulling 2" class="cls-1" width="1000" height="1000"/>
  <path id="Kleurenvulling_1" data-name="Kleurenvulling 1" class="cls-2" d="M529,232h3v1l-3,1v-2Zm5,1h3v1l-3,1v-2Zm58,71q-9,90.991-18,182v-2c-21.484-15.664-39.635-33.791-64-48L400,388c-14.993-7.771-45.383-21.445-41-47,3.672-21.413,26.09-31.711,49-21,33.414,15.622,63.077,47.583,83,77l36-16c14.652-28.619-6.242-73.839-9-98q0.5-22,1-44c3.152-2.458,3.208-3.684,8-5q0.5,34.5,1,69C548.605,301.05,572.339,303.236,592,304Zm-53-70h3v1l-3,1v-2Zm33,7h3v1l-3,1v-2Zm-67,1h3q-0.5,5.5-1,11c-2.193-5.235-3.289-1.985-8-4Zm97,6h3v1l-3,1v-2Zm-118,2h3v1l-3,1v-2Zm-17,2h3v1l-3,1v-2Zm151,0h3v1l-3,1v-2Zm4,1h3v1l-3,1v-2Zm-114,5v6h-2l-42,4a101.367,101.367,0,0,1,14,42l-48-24c6.353-8.651,20.225-25.581,31-29C465.253,264.323,497.589,258.346,508,258Zm129-1h3v1l-3,1v-2Zm21,6h3v1l-3,1v-2Zm10,3h3v1l-3,1v-2ZM383,278h3v1l-3,1v-2Zm30,2h3v1l-3,1v-2Zm315,8c3.023,1.259,1.2-.018,3,2h-1Zm-371,3h3l-3,3v-3Zm394,9c3.023,1.259,1.2-.018,3,2h-1Zm-406,4h3c-20.17,38.185-4.31,52.781,16,78,38.064,47.263,100,74.634,148,112,15.154,11.8,47.755,35.856,41,67-4.8,22.131-38.442,41.631-67,30-33.1-13.479-67.742-57.2-79-92l-2,1-31,60c33.413,18.692,95,68.584,152,45,18.453-7.636,32.063-22.655,47-34q2,11.5,4,23l74,4v-1c-10.173-28.36-9.681-63.365-16-96,23.468,8.467,76.664,19.2,93,34-28.214,38.826-74.69,77.249-132,86l3,20c37.949-4.926,65.831-23.95,92-41-3.885,13.816-37.177,39.178-48,50-35.6,35.6-67.539,75.306-117,97-6.769,2.969-45.443,21.227-53,14-4.716,3.024-8.887,5.172-16,4V746l27-28-32-2-3-21c-16.53,12.744-31.721,29.235-54,36-45.888,13.934-127.65-27.039-145-49l6-13c-4.578,3.614-6.032,7.542-13,9l-4-4c14.7-46.712,48.8-73.934,78-106-17.075-6.231-31.327-22.5-45-33-19.731-15.145-46.946-36.08-56-61-10.791-29.7,10.007-50,23-63Zm416,3h3v3Zm-127,5c29.71,2.546,97.71,25.825,99,54-23.282,35.557-63.957,67.176-100,90h-1C628.931,411.151,626.1,354.265,634,312Zm137,10c2.042,1.8.707,0.015,2,3h-2v-3Zm0,15c2.042,1.8.707,0.015,2,3h-2v-3Zm-1,4c2.042,1.8.707,0.015,2,3h-2v-3Zm-13,27q0.5,1.5,1,3h-3Zm-23,28q0.5,1.5,1,3h-3Zm-33,33q0.5,1.5,1,3h-3Zm-10,9q0.5,1.5,1,3h-3Zm-9,8q0.5,1.5,1,3h-3Zm-6,5c2.614,3.3-.263,2.8-3,4v-1l2-1Q675.5,452,676,451Zm8,4h3v1l-3,1v-2Zm6,1h3v1l-3,1v-2Zm17,3h3v1l-3,1v-2Zm5,1h3v1l-3,1v-2Zm5,1h3v1l-3,1v-2Zm37,9h3v1l-3,1v-2Zm25,10c3.023,1.259,1.2-.018,3,2h-1ZM393,493l-30,59,6,4,2-1,32-59Zm382,13q0.5,1.5,1,3h-3Zm-5,7q0.5,1.5,1,3h-3Zm-18,24q0.5,1.5,1,3h-3Zm-7,9q0.5,1.5,1,3h-3Zm-11,13q0.5,1.5,1,3h-3Zm-39,37q0.5,1.5,1,3h-3ZM592,622c-6.477-.342-9.822-0.227-12,4q1,8.5,2,17l13-1Z"/>
  <path id="Kleurenvulling_3" data-name="Kleurenvulling 3" class="cls-3" d="M509,242h9c0.268,42.265,5.332,66.8,11,103,1.429,9.128,1.6,32.572-3,37l-36,13c-10.646-23.653-54.863-64.321-79-75-23.813-10.536-48.319-3.763-53,20-5.338,27.1,25.227,39.313,40,48l119,53c22.482,13.168,39.08,31.841,59,47q8.5-92.491,17-185c-19.724-.537-43.444-3.645-64-1q-0.5-34-1-68c69.212,19.785,138.269,30.083,198,56,17.5,7.592,51.109,17.039,45,47-7.81,38.3-46.138,69.822-71,93-7.562,7.05-26.9,17.747-29,26,28.963,0.671,100.936,15.474,114,31-8.111,19.187-22.259,33.438-34,49-39.438,52.273-79.914,81.946-151,104l-3-18h2c20.975-9.638,41.843-12,60-23,28.937-17.531,46.387-43.049,71-64q-0.5-1-1-2c-30.5-8.873-61.574-26.337-95-33,2.4,32.226,5.608,70.3,16,97l-73-5-3-23c-16.721,12.64-31.865,30.164-54,37-45.857,14.162-126.526-24.735-145-48l31-56,2,1c10.374,33.72,43.7,74.967,75,88,29.894,12.447,65.543-5.385,71-30,7.062-31.851-32.129-61.336-48-73-46.046-33.839-142.154-84.01-164-136-15.525-36.946,21.016-79.044,60-72,32.2,5.818,51.972,22.481,78,32-4.4-15.442-6.655-31.028-14-43l1-1,42-3V242Zm-13,9c5.3-.084,8.021.525,11,2l1,3v1l-46,2,1-4Zm137,59c-3.442,25.578-10.909,125.644-1,148l2-2c33-13.626,79.52-60.929,100-89C732.741,330.356,664.351,320.421,633,310ZM394,494l8,3-33,57-2-2-3-1ZM591,623l3,18-11,1v-2q-1-8-2-16Z"/>
</svg>
